<?xml version="1.0" encoding="UTF-8" standalone="no"?>
<svg
   xmlns:dc="http://purl.org/dc/elements/1.1/"
   xmlns:cc="http://creativecommons.org/ns#"
   xmlns:rdf="http://www.w3.org/1999/02/22-rdf-syntax-ns#"
   xmlns:svg="http://www.w3.org/2000/svg"
   xmlns="http://www.w3.org/2000/svg"
   xmlns:sodipodi="http://sodipodi.sourceforge.net/DTD/sodipodi-0.dtd"
   xmlns:inkscape="http://www.inkscape.org/namespaces/inkscape"
   id="svg951"
   version="1.1"
   viewBox="0 0 27.081752 26.688241"
   height="26.688242mm"
   width="27.081753mm"
   sodipodi:docname="great2.svg"
   inkscape:version="0.92.4 5da689c313, 2019-01-14">
  <sodipodi:namedview
     pagecolor="#ffffff"
     bordercolor="#666666"
     borderopacity="1"
     objecttolerance="10"
     gridtolerance="10"
     guidetolerance="10"
     inkscape:pageopacity="0"
     inkscape:pageshadow="2"
     inkscape:window-width="1920"
     inkscape:window-height="1147"
     id="namedview10"
     showgrid="false"
     inkscape:zoom="2.3396696"
     inkscape:cx="-27.704018"
     inkscape:cy="64.068398"
     inkscape:window-x="0"
     inkscape:window-y="0"
     inkscape:window-maximized="1"
     inkscape:current-layer="svg951" />
  <defs
     id="defs945" />
  <metadata
     id="metadata948">
    <rdf:RDF>
      <cc:Work
         rdf:about="">
        <dc:format>image/svg+xml</dc:format>
        <dc:type
           rdf:resource="http://purl.org/dc/dcmitype/StillImage" />
        <dc:title />
      </cc:Work>
    </rdf:RDF>
  </metadata>
  <path
     d="m 12.708984,14.644531 c -1.972936,0.465561 -3.9372239,2.280308 -5.6816402,6.183594 -0.00237,0.0053 -0.00544,0.0064 -0.00781,0.01172 -9.318e-4,0.0018 -0.00386,0.0097 -0.00391,0.0098 -1.76e-4,4.1e-4 -0.031265,0.18338 -0.03125,0.183594 1.49e-5,2.14e-4 0.3572168,0.369121 0.3574219,0.369141 2.051e-4,2e-5 0.196871,-0.03108 0.1972656,-0.03125 3.946e-4,-1.72e-4 0.042161,-0.02081 0.052734,-0.02734 0.021146,-0.01307 0.027603,-0.01962 0.035156,-0.02539 0.030213,-0.02307 0.041817,-0.03465 0.0625,-0.05273 0.041366,-0.03617 0.1007258,-0.08715 0.1816407,-0.15625 0.1618297,-0.138191 0.4057373,-0.341039 0.7246093,-0.570313 0.6377441,-0.458547 1.5682647,-1.024842 2.6874997,-1.408203 2.238471,-0.76672 5.19758,-0.850442 8.353516,2.158203 0.26438,0.252041 0.477078,0.420876 0.691406,0.525391 0.107164,0.05226 0.217032,0.09316 0.359375,0.0918 0.142343,-0.0014 0.324383,-0.07899 0.421875,-0.203125 0.194984,-0.248277 0.144802,-0.470526 0.101563,-0.691406 -0.04324,-0.22088 -0.129511,-0.463802 -0.25,-0.738281 -0.481958,-1.09792 -1.545407,-2.683994 -2.984376,-3.931641 -1.438968,-1.247648 -3.29196,-2.16346 -5.267578,-1.697266 z m 0.183594,0.771485 c 1.639867,-0.386966 3.233852,0.371702 4.564453,1.52539 1.330602,1.153689 2.357726,2.694484 2.777344,3.650391 0.04046,0.09218 0.04736,0.141348 0.07617,0.220703 -0.05154,-0.04418 -0.06576,-0.04118 -0.125,-0.09766 -3.345555,-3.189415 -6.72361,-3.170503 -9.160156,-2.335938 -0.965042,0.330546 -1.6513559,0.784531 -2.291016,1.201172 1.398895,-2.413626 2.831185,-3.850921 4.158203,-4.164062 z"
     id="path889-8-4-7"
     inkscape:connector-curvature="0" />
  <path
     d="m 15.820312,7.2597656 c -0.07486,0.00624 -0.172485,0.041023 -0.242187,0.1074219 -0.0697,0.066399 -0.103603,0.1480788 -0.117187,0.2128906 -0.02717,0.1296236 -0.0044,0.2164868 0.01953,0.3105469 0.04792,0.1881202 0.140305,0.4028803 0.279297,0.6875 0.418132,0.8562208 0.757008,1.451264 1.113281,1.890625 0.356273,0.439361 0.742189,0.718728 1.189453,0.894531 0.715676,0.281318 1.590275,0.109075 2.382812,-0.384765 0.41245,-0.257003 0.981549,-0.692401 1.458985,-1.087891 0.238718,-0.1977449 0.452573,-0.3845011 0.611328,-0.5371094 0.07938,-0.076304 0.145318,-0.1422208 0.199219,-0.2070312 0.02695,-0.032405 0.05062,-0.062924 0.07617,-0.1074219 0.02556,-0.044498 0.0905,-0.09768 0.04687,-0.2792969 C 22.811985,8.6518432 22.712987,8.491981 22.568359,8.4296875 22.423732,8.367394 22.30187,8.3816652 22.179688,8.4042969 21.935322,8.4495602 21.635252,8.5649691 21.136719,8.7636719 20.625447,8.9674687 19.947831,9.1665682 19.791016,9.1875 18.961678,9.2982683 18.037191,8.9524122 17.126953,8.1191406 16.835097,7.8519652 16.599051,7.6496438 16.40625,7.5078125 16.309849,7.4368968 16.22471,7.3818194 16.138672,7.3378906 16.052634,7.2939618 15.970025,7.2472933 15.820312,7.2597656 Z M 16.40625,8.375 c 0.09593,0.082832 0.157343,0.1261449 0.273438,0.2324219 1.008582,0.9233004 2.126898,1.3795498 3.199218,1.2363281 0.351125,-0.046868 0.953927,-0.2483497 1.501953,-0.4667969 0.09567,-0.038132 0.09816,-0.031285 0.179688,-0.0625 -0.03021,0.025392 -0.04689,0.042489 -0.07813,0.068359 -0.460449,0.3814181 -1.028328,0.8098849 -1.386719,1.0332039 -0.662582,0.412863 -1.34355,0.507921 -1.791015,0.332031 C 17.950052,10.608652 17.686411,10.422319 17.386719,10.052734 17.101904,9.7014963 16.787047,9.1447809 16.40625,8.375 Z"
     id="path1130-9-6-8-8"
     inkscape:connector-curvature="0" />
  <path
     d="m 12.425781,7.2597656 c -0.149712,-0.012473 -0.232321,0.034196 -0.318359,0.078125 -0.08604,0.043929 -0.171178,0.099006 -0.267578,0.1699219 -0.192801,0.1418314 -0.42885,0.3441524 -0.720703,0.6113281 C 10.208903,8.9524123 9.2844171,9.2982684 8.4550781,9.1875 8.2982628,9.1665682 7.6206483,8.9674688 7.109375,8.7636719 6.6108468,8.564969 6.3107726,8.4495603 6.0664062,8.4042969 5.9442231,8.3816652 5.8223594,8.3673969 5.6777344,8.4296875 5.5331093,8.4919781 5.4341135,8.6518446 5.4082031,8.7597656 c -0.043629,0.181617 0.021319,0.234799 0.046875,0.2792969 0.025556,0.044498 0.049221,0.075017 0.076172,0.1074219 0.053901,0.06481 0.1198411,0.1307271 0.1992188,0.2070312 0.1587552,0.1526082 0.3726107,0.3393646 0.6113281,0.5371094 0.4774347,0.39549 1.0465411,0.830888 1.4589843,1.087891 0.7925465,0.493839 1.6671369,0.666084 2.3828127,0.384765 0.447264,-0.175803 0.83318,-0.45517 1.189453,-0.894531 0.356272,-0.439361 0.695148,-1.0344042 1.113281,-1.890625 0.138992,-0.2846201 0.231381,-0.4993786 0.279297,-0.6875 0.02396,-0.094061 0.0467,-0.1809234 0.01953,-0.3105469 -0.01359,-0.064812 -0.04749,-0.1464929 -0.117187,-0.2128906 -0.0697,-0.066398 -0.167332,-0.1011854 -0.242187,-0.1074219 z M 11.839844,8.375 c -0.380797,0.7697809 -0.695654,1.3264964 -0.980469,1.677734 -0.299692,0.369585 -0.563333,0.555918 -0.9179688,0.695313 -0.4474643,0.17589 -1.128422,0.08083 -1.7910156,-0.332031 C 7.7920038,10.192697 7.2241197,9.7642308 6.7636719,9.3828125 6.7328823,9.3573075 6.7173012,9.3394946 6.6875,9.3144531 c 0.080341,0.030786 0.081787,0.025036 0.1757812,0.0625 C 7.4113079,9.5954002 8.0160628,9.7968818 8.3671875,9.84375 9.4395086,9.9869716 10.557824,9.5307222 11.566406,8.6074219 11.682499,8.501145 11.743911,8.4578323 11.839844,8.375 Z"
     id="path1209-4-1"
     inkscape:connector-curvature="0" />
  <path
     d="M 15.457031,0.5078125 C 14.090033,0.44351851 11.689288,0.49762349 10.423828,0.62304688 6.9828412,0.96409243 4.4403445,1.8082355 3.0800781,3.2402344 2.714409,3.6251918 2.4445647,4.0526551 2.328125,4.5019531 2.2698623,4.7264392 2.2699242,4.9389721 2.2851562,5.8945312 2.3742455,11.46416 2.1090792,16.095873 3.8945312,19.677734 4.8704448,21.635559 5.502751,22.224492 6.921875,23.375 c 0.7033751,0.570235 1.8640898,1.248661 3.0566406,1.833984 1.1925504,0.585324 2.3718894,1.068978 3.2207034,1.185547 1.101978,0.151334 2.336888,-0.147574 3.720703,-0.832031 0.56365,-0.278791 1.706173,-0.850287 2.833984,-1.482422 1.127812,-0.632135 2.219906,-1.283807 2.798828,-1.904297 1.443813,-1.547494 1.970317,-3.342016 2.189454,-5.439453 0.219136,-2.097437 0.155409,-4.528246 0.40625,-7.533203 0.06601,-0.7937804 0.11872,-1.8197572 0.146484,-2.6953125 0.01388,-0.4377776 0.02183,-0.8379211 0.02148,-1.1542969 -3.43e-4,-0.3163757 0.0096,-0.4893465 -0.03711,-0.7109375 C 25.035335,3.4835363 23.894353,2.5131207 22.375,1.8417969 20.624381,1.0682957 18.380228,0.64529958 15.457031,0.5078125 Z m -2.257812,25.8867185 0.03125,0.0059 h 0.0332 z m 2.21289,-24.9218748 c 2.852904,0.134181 4.985038,0.5497824 6.574219,1.2519532 1.348367,0.5957741 2.219898,1.5102213 2.347656,2.1171875 -0.01147,-0.054455 0.0153,0.2138732 0.01563,0.5136719 3.25e-4,0.2997986 -0.0059,0.6907792 -0.01953,1.1210937 -0.02729,0.860629 -0.08072,1.8791308 -0.144531,2.6464844 -0.255509,3.0608831 -0.193465,5.5144141 -0.402344,7.5136721 -0.208879,1.999257 -0.663362,3.513271 -1.9375,4.878906 -0.367988,0.39441 -1.461432,1.105511 -2.5625,1.722656 -1.101068,0.617145 -2.231575,1.182276 -2.791015,1.458985 -1.277804,0.632022 -2.331647,0.856234 -3.16211,0.742187 C 12.748122,25.359532 11.551189,24.906664 10.404297,24.34375 9.2574052,23.780836 8.1138017,23.098865 7.5292969,22.625 6.1189008,21.481568 5.698639,21.135482 4.7578125,19.248047 3.1417446,16.005994 3.3396507,11.483633 3.25,5.8789062 3.234832,4.9273654 3.2419814,4.8201886 3.2617188,4.7441406 3.3194791,4.5212646 3.5049591,4.1951615 3.78125,3.9042969 4.8433236,2.7862157 7.1938182,1.9136048 10.519531,1.5839844 11.688972,1.4680777 14.126968,1.4122122 15.412109,1.4726562 Z"
     id="path828-4-5-1-4-1"
     inkscape:connector-curvature="0" />
</svg>
