<svg xmlns="http://www.w3.org/2000/svg" version="1.1" xmlns:xlink="http://www.w3.org/1999/xlink" xmlns:svgjs="http://svgjs.dev/svgjs" width="220" height="220" viewBox="0 0 1000 1000"><g><g><g><g><path d="M30 872.2651977539062L30 872.2651977539062L27.077102661132812 880L24.97589874267578 890L24.318082809448242 900L24.97589874267578 910L27.077102661132812 920L30 927.7348022460938L30.717586517333984 930L35.562469482421875 940L40 946.256591796875L42.8057861328125 950L50 957.5383911132812L52.9167366027832 960L60 965.5794677734375L68.13729095458984 970L70 970.19140625L80 971.03076171875L90 971.5853881835938L100 971.8645629882812L110 971.8914794921875L120 971.7071533203125L130 971.371826171875L140 970.9631958007812L150 970.56884765625L160 970.2732543945312L170 970.1412353515625L180 970.2034912109375L190 970.44921875L200 970.8296508789062L210 971.2698974609375L220 971.6849365234375L230 971.9946899414062L240 972.1341552734375L250 972.0585327148438L260 971.7438354492188L270 971.1856689453125L280 970.3964233398438L284.2279968261719 970L290 966.7733764648438L298.64398193359375 960L300 958.8269653320312L308.5272216796875 950L310 948.0217895507812L315.8395080566406 940L320 931.2457275390625L320.6624450683594 930L324.48748779296875 920L326.51434326171875 910L327.14569091796875 900L326.51434326171875 890L324.48748779296875 880L320.6624450683594 870L320 868.7542724609375L315.8395080566406 860L310 851.9782104492188L308.5272216796875 850L300 841.1730346679688L298.64398193359375 840L290 833.2266235351562L284.2279968261719 830L280 827.540283203125L270 823.2891845703125L260 820.7267456054688L254.8658447265625 820L250 819.080810546875L240 818.3936157226562L230 818.78759765625L221.03184509277344 820L220 820.1121826171875L210 821.81640625L200 824.0982666015625L190 826.5189208984375L180 828.3367309570312L170 828.8366088867188L160 827.8395385742188L150 825.845703125L140 823.6337280273438L130 821.8045654296875L120 820.64501953125L110 820.2392578125L100 820.6337280273438L90 821.9662475585938L80 824.5480346679688L70 828.9114379882812L68.13729095458984 830L60 834.4205322265625L52.9167366027832 840L50 842.4616088867188L42.8057861328125 850L40 853.743408203125L35.562469482421875 860L30.717586517333984 870Z" fill="url(&quot;#hologram850#9488F0false&quot;)"></path><path d="M460 866.4827880859375L460 866.4827880859375L458.00921630859375 870L454.14556884765625 880L452.1401062011719 890L451.522705078125 900L452.1401062011719 910L454.14556884765625 920L458.00921630859375 930L460 933.5172119140625L463.3213195800781 940L470 948.5726318359375L471.1736145019531 950L480 958.44384765625L482.0558776855469 960L490 965.6189575195312L499.4558410644531 970L500 970.0473022460938L510 970.7601318359375L520 971.2049560546875L530 971.360595703125L540 971.2188720703125L550 970.7841186523438L560 970.0731201171875L560.8306274414062 970L570 965.7847900390625L578.1749267578125 960L580 958.6281127929688L588.9996948242188 950L590 948.786865234375L592.0859985351562 940L593.29248046875 930L594.1195068359375 920L594.5996704101562 910L594.7567749023438 900L594.5996704101562 890L594.1195068359375 880L593.29248046875 870L592.0859985351562 860L590 851.213134765625L588.9996948242188 850L580 841.3718872070312L578.1749267578125 840L570 834.2152099609375L560.8306274414062 830L560 829.58447265625L550 825.8965454101562L540 823.9385986328125L530 823.3410034179688L520 823.981201171875L510 825.9869995117188L500 829.727783203125L499.4558410644531 830L490 834.3810424804688L482.0558776855469 840L480 841.55615234375L471.1736145019531 850L470 851.4273681640625L463.3213195800781 860Z" fill="url(&quot;#hologram850#9488F0false&quot;)"></path><path d="M800 890.0765380859375L800 890.0765380859375L799.2333374023438 900L800 909.9234619140625L800.0055541992188 910L802.4617919921875 920L807.5479736328125 930L810 935.0310668945312L817.4511108398438 940L820 942.8607788085938L830 946.0590209960938L840 944.673095703125L846.8607177734375 940L850 938.09130859375L856.0958862304688 930L860 920.7022705078125L860.2184448242188 920L862.569091796875 910L863.2913208007812 900L862.569091796875 890L860.2184448242188 880L860 879.2977294921875L856.0958862304688 870L850 861.90869140625L846.8607177734375 860L840 855.326904296875L830 853.9409790039062L820 857.1392211914062L817.4511108398438 860L810 864.9689331054688L807.5479736328125 870L802.4617919921875 880L800.0055541992188 890Z" fill="url(&quot;#hologram850#9488F0false&quot;)"></path></g><g></g><g><path d="M30 872.2651977539062L30 872.2651977539062L27.077102661132812 880L24.97589874267578 890L24.318082809448242 900L24.97589874267578 910L27.077102661132812 920L30 927.7348022460938L30.717586517333984 930L35.562469482421875 940L40 946.256591796875L42.8057861328125 950L50 957.5383911132812L52.9167366027832 960L60 965.5794677734375L68.13729095458984 970L70 970.19140625L80 971.03076171875L90 971.5853881835938L100 971.8645629882812L110 971.8914794921875L120 971.7071533203125L130 971.371826171875L140 970.9631958007812L150 970.56884765625L160 970.2732543945312L170 970.1412353515625L180 970.2034912109375L190 970.44921875L200 970.8296508789062L210 971.2698974609375L220 971.6849365234375L230 971.9946899414062L240 972.1341552734375L250 972.0585327148438L260 971.7438354492188L270 971.1856689453125L280 970.3964233398438L284.2279968261719 970L290 966.7733764648438L298.64398193359375 960L300 958.8269653320312L308.5272216796875 950L310 948.0217895507812L315.8395080566406 940L320 931.2457275390625L320.6624450683594 930L324.48748779296875 920L326.51434326171875 910L327.14569091796875 900L326.51434326171875 890L324.48748779296875 880L320.6624450683594 870L320 868.7542724609375L315.8395080566406 860L310 851.9782104492188L308.5272216796875 850L300 841.1730346679688L298.64398193359375 840L290 833.2266235351562L284.2279968261719 830L280 827.540283203125L270 823.2891845703125L260 820.7267456054688L254.8658447265625 820L250 819.080810546875L240 818.3936157226562L230 818.78759765625L221.03184509277344 820L220 820.1121826171875L210 821.81640625L200 824.0982666015625L190 826.5189208984375L180 828.3367309570312L170 828.8366088867188L160 827.8395385742188L150 825.845703125L140 823.6337280273438L130 821.8045654296875L120 820.64501953125L110 820.2392578125L100 820.6337280273438L90 821.9662475585938L80 824.5480346679688L70 828.9114379882812L68.13729095458984 830L60 834.4205322265625L52.9167366027832 840L50 842.4616088867188L42.8057861328125 850L40 853.743408203125L35.562469482421875 860L30.717586517333984 870Z" stroke-width="5" stroke="#0bdbfb" fill="none"></path><path d="M460 866.4827880859375L460 866.4827880859375L458.00921630859375 870L454.14556884765625 880L452.1401062011719 890L451.522705078125 900L452.1401062011719 910L454.14556884765625 920L458.00921630859375 930L460 933.5172119140625L463.3213195800781 940L470 948.5726318359375L471.1736145019531 950L480 958.44384765625L482.0558776855469 960L490 965.6189575195312L499.4558410644531 970L500 970.0473022460938L510 970.7601318359375L520 971.2049560546875L530 971.360595703125L540 971.2188720703125L550 970.7841186523438L560 970.0731201171875L560.8306274414062 970L570 965.7847900390625L578.1749267578125 960L580 958.6281127929688L588.9996948242188 950L590 948.786865234375L592.0859985351562 940L593.29248046875 930L594.1195068359375 920L594.5996704101562 910L594.7567749023438 900L594.5996704101562 890L594.1195068359375 880L593.29248046875 870L592.0859985351562 860L590 851.213134765625L588.9996948242188 850L580 841.3718872070312L578.1749267578125 840L570 834.2152099609375L560.8306274414062 830L560 829.58447265625L550 825.8965454101562L540 823.9385986328125L530 823.3410034179688L520 823.981201171875L510 825.9869995117188L500 829.727783203125L499.4558410644531 830L490 834.3810424804688L482.0558776855469 840L480 841.55615234375L471.1736145019531 850L470 851.4273681640625L463.3213195800781 860Z" stroke-width="5" stroke="#0bdbfb" fill="none"></path><path d="M800 890.0765380859375L800 890.0765380859375L799.2333374023438 900L800 909.9234619140625L800.0055541992188 910L802.4617919921875 920L807.5479736328125 930L810 935.0310668945312L817.4511108398438 940L820 942.8607788085938L830 946.0590209960938L840 944.673095703125L846.8607177734375 940L850 938.09130859375L856.0958862304688 930L860 920.7022705078125L860.2184448242188 920L862.569091796875 910L863.2913208007812 900L862.569091796875 890L860.2184448242188 880L860 879.2977294921875L856.0958862304688 870L850 861.90869140625L846.8607177734375 860L840 855.326904296875L830 853.9409790039062L820 857.1392211914062L817.4511108398438 860L810 864.9689331054688L807.5479736328125 870L802.4617919921875 880L800.0055541992188 890Z" stroke-width="5" stroke="#0bdbfb" fill="none"></path></g><g></g><g></g></g><g><g><path d="M600 838.02099609375L600 838.02099609375L598.4901123046875 840L590.4688110351562 850L592.0859985351562 860L593.29248046875 870L594.1195068359375 880L594.5996704101562 890L594.7567749023438 900L594.5996704101562 910L594.1195068359375 920L593.29248046875 930L592.0859985351562 940L590.4688110351562 950L598.4901123046875 960L600 961.97900390625L606.6213989257812 970L610 970.3836059570312L620 971.4699096679688L630 972.40185546875L640 973.1729125976562L650 973.7825317382812L660 974.239501953125L670 974.5656127929688L680 974.7958374023438L690 974.9738159179688L700 975.1419677734375L710 975.328857421875L720 975.5414428710938L730 975.76513671875L740 975.971435546875L750 976.1278076171875L760 976.2067260742188L770 976.1903686523438L780 976.0730590820312L790 975.8615112304688L800 975.5741577148438L810 975.2398681640625L820 974.8950805664062L830 974.5801391601562L840 974.3329467773438L850 974.1828002929688L860 974.143798828125L870 974.211181640625L880 974.3613891601562L890 974.5575561523438L900 974.7577514648438L910 974.92578125L920 975.0401611328125L930 975.0991821289062L940 975.1201171875L950 975.130859375L960 975.1578979492188L970 975.2140502929688L975.2140502929688 970L975.9893798828125 960L976.688232421875 950L977.301513671875 940L977.8162841796875 930L978.2142944335938 920L978.4708862304688 910L978.560302734375 900L978.4708862304688 890L978.2142944335938 880L977.8162841796875 870L977.301513671875 860L976.688232421875 850L975.9893798828125 840L975.2140502929688 830L974.3687744140625 820L973.4584350585938 810L972.486572265625 800L971.455810546875 790L970.3680419921875 780L970 776.5316772460938L960 776.4198608398438L950 776.43896484375L940 776.573486328125L930 776.813232421875L920 777.1450805664062L910 777.5432739257812L900 777.9600219726562L890 778.3215942382812L880 778.5322875976562L870 778.4912109375L860 778.1204223632812L850 777.3946533203125L840 776.3579711914062L830 775.1159057617188L820 773.8076171875L810 772.571044921875L800 771.5186767578125L790 770.7288818359375L780 770.2498779296875L770 770.1107177734375L760 770.3316040039062L750 770.9308471679688L740 771.9273071289062L730 773.3394775390625L720 775.1835327148438L710 777.475341796875L700.8278198242188 780L700 780.1976928710938L690 782.9185791015625L680 786.1376342773438L670 789.9774169921875L669.9479370117188 790L660 793.7764282226562L650 798.5039672851562L647.3121948242188 800L640 803.6687622070312L630.2066650390625 810L630 810.1243286132812L620 817.3582153320312L616.9939575195312 820L610 826.408935546875L606.6213989257812 830ZM799.2333374023438 900L800 890.0765380859375L800.0055541992188 890L802.4617919921875 880L807.5479736328125 870L810 864.9689331054688L817.4511108398438 860L820 857.1392211914062L830 853.9409790039062L840 855.326904296875L846.8607177734375 860L850 861.90869140625L856.0958862304688 870L860 879.2977294921875L860.2184448242188 880L862.569091796875 890L863.2913208007812 900L862.569091796875 910L860.2184448242188 920L860 920.7022705078125L856.0958862304688 930L850 938.09130859375L846.8607177734375 940L840 944.673095703125L830 946.0590209960938L820 942.8607788085938L817.4511108398438 940L810 935.0310668945312L807.5479736328125 930L802.4617919921875 920L800.0055541992188 910L800 909.9234619140625" fill="url(&quot;#hologram550#6FDCBAfalse&quot;)"></path></g><g></g><g><path d="M600 838.02099609375L600 838.02099609375L598.4901123046875 840L590.4688110351562 850L592.0859985351562 860L593.29248046875 870L594.1195068359375 880L594.5996704101562 890L594.7567749023438 900L594.5996704101562 910L594.1195068359375 920L593.29248046875 930L592.0859985351562 940L590.4688110351562 950L598.4901123046875 960L600 961.97900390625L606.6213989257812 970L610 970.3836059570312L620 971.4699096679688L630 972.40185546875L640 973.1729125976562L650 973.7825317382812L660 974.239501953125L670 974.5656127929688L680 974.7958374023438L690 974.9738159179688L700 975.1419677734375L710 975.328857421875L720 975.5414428710938L730 975.76513671875L740 975.971435546875L750 976.1278076171875L760 976.2067260742188L770 976.1903686523438L780 976.0730590820312L790 975.8615112304688L800 975.5741577148438L810 975.2398681640625L820 974.8950805664062L830 974.5801391601562L840 974.3329467773438L850 974.1828002929688L860 974.143798828125L870 974.211181640625L880 974.3613891601562L890 974.5575561523438L900 974.7577514648438L910 974.92578125L920 975.0401611328125L930 975.0991821289062L940 975.1201171875L950 975.130859375L960 975.1578979492188L970 975.2140502929688L975.2140502929688 970L975.9893798828125 960L976.688232421875 950L977.301513671875 940L977.8162841796875 930L978.2142944335938 920L978.4708862304688 910L978.560302734375 900L978.4708862304688 890L978.2142944335938 880L977.8162841796875 870L977.301513671875 860L976.688232421875 850L975.9893798828125 840L975.2140502929688 830L974.3687744140625 820L973.4584350585938 810L972.486572265625 800L971.455810546875 790L970.3680419921875 780L970 776.5316772460938L960 776.4198608398438L950 776.43896484375L940 776.573486328125L930 776.813232421875L920 777.1450805664062L910 777.5432739257812L900 777.9600219726562L890 778.3215942382812L880 778.5322875976562L870 778.4912109375L860 778.1204223632812L850 777.3946533203125L840 776.3579711914062L830 775.1159057617188L820 773.8076171875L810 772.571044921875L800 771.5186767578125L790 770.7288818359375L780 770.2498779296875L770 770.1107177734375L760 770.3316040039062L750 770.9308471679688L740 771.9273071289062L730 773.3394775390625L720 775.1835327148438L710 777.475341796875L700.8278198242188 780L700 780.1976928710938L690 782.9185791015625L680 786.1376342773438L670 789.9774169921875L669.9479370117188 790L660 793.7764282226562L650 798.5039672851562L647.3121948242188 800L640 803.6687622070312L630.2066650390625 810L630 810.1243286132812L620 817.3582153320312L616.9939575195312 820L610 826.408935546875L606.6213989257812 830ZM799.2333374023438 900L800 890.0765380859375L800.0055541992188 890L802.4617919921875 880L807.5479736328125 870L810 864.9689331054688L817.4511108398438 860L820 857.1392211914062L830 853.9409790039062L840 855.326904296875L846.8607177734375 860L850 861.90869140625L856.0958862304688 870L860 879.2977294921875L860.2184448242188 880L862.569091796875 890L863.2913208007812 900L862.569091796875 910L860.2184448242188 920L860 920.7022705078125L856.0958862304688 930L850 938.09130859375L846.8607177734375 940L840 944.673095703125L830 946.0590209960938L820 942.8607788085938L817.4511108398438 940L810 935.0310668945312L807.5479736328125 930L802.4617919921875 920L800.0055541992188 910L800 909.9234619140625" stroke-width="5" stroke="#0bdbfb" fill="none"></path></g><g></g><g></g></g><g><g><path d="M290 77.51793670654297L290 77.51793670654297L289.1178894042969 80L286.9569091796875 90L286.2545166015625 100L286.8952331542969 110L288.9808044433594 120L290 122.92760467529297L292.0586242675781 130L296.808349609375 140L300 144.8558349609375L303.4660949707031 150L310 157.41307067871094L312.7008972167969 160L320 166.2940673828125L325.8852233886719 170L330 172.68800354003906L340 177.4348907470703L348.795654296875 180L350 180.4377899169922L360 182.7654571533203L370 183.79949951171875L380 183.7401885986328L390 182.66165161132812L400 180.57427978515625L402.1339111328125 180L410 178.02496337890625L420 174.73153686523438L430 170.89517211914062L432.91839599609375 170L440 167.54859924316406L450 165.658447265625L460 167.05931091308594L464.92388916015625 170L470 173.01446533203125L477.2219543457031 180L480 182.4293975830078L486.95379638671875 190L490 192.88516235351562L496.91961669921875 200L500 202.78431701660156L508.1346435546875 210L510 211.51512145996094L520 219.0467987060547L521.4412231445312 220L530 225.6277618408203L538.365234375 230L540 230.89930725097656L550 235.6283721923828L560 239.20370483398438L562.8289794921875 240L570 242.37025451660156L580 244.9176483154297L590 246.8292694091797L600 248.25677490234375L610 249.32522583007812L618.3236083984375 250L620 250.16781616210938L630 250.9425048828125L640 251.61257934570312L650 252.2794189453125L660 253.04058837890625L670 253.99224853515625L680 255.23268127441406L690 256.8672790527344L700 259.0155029296875L703.5533447265625 260L710 262.0108642578125L720 265.9553527832031L728.1954956054688 270L730 270.9457702636719L740 277.2728271484375L743.6387939453125 280L750 284.6737365722656L756.4849853515625 290L760 292.7250061035156L768.900634765625 300L770 300.8351135253906L780 308.5770568847656L781.901611328125 310L790 315.6615295410156L797.0888061523438 320L800 321.7400817871094L810 327.0487365722656L817.08154296875 330L820 331.28948974609375L830 334.9270935058594L840 337.52056884765625L850 339.22540283203125L858.1007080078125 340L860 340.2268371582031L870 340.5956115722656L880 340.15582275390625L881.3207397460938 340L890 339.1378479003906L900 337.460693359375L910 335.0340576171875L920 331.8273620605469L924.95263671875 330L930 328.1589660644531L940 324.0484924316406L948.8677368164062 320L950 319.4527282714844L960 314.9270324707031L970 310.4467468261719L970.0225830078125 310L970.5289916992188 300L971.0076293945312 290L971.455322265625 280L971.8693237304688 270L972.2487182617188 260L972.5950317382812 250L972.9132690429688 240L973.2120971679688 230L973.5032348632812 220L973.8002319335938 210L974.1167602539062 200L974.4647216796875 190L974.8527221679688 180L975.2849731445312 170L975.760009765625 160L976.2691040039062 150L976.793212890625 140L977.2984008789062 130L977.73291015625 120L978.03173828125 110L978.1357421875 100L978.0177612304688 90L977.6951904296875 80L977.2164306640625 70L976.6349487304688 60L975.9921264648438 50L975.3134765625 40L974.6123657226562 30L973.89453125 20L973.161865234375 10L970 6.8381123542785645L960 6.600188732147217L950 6.383494853973389L940 6.201144695281982L930 6.060365676879883L920 5.963122844696045L910 5.908172607421875L900 5.89362907409668L890 5.918700218200684L880 5.983615398406982L870 6.08779239654541L860 6.227331161499023L850 6.393218517303467L840 6.571154594421387L830 6.743118762969971L820 6.890177249908447L810 6.995770454406738L800 7.048720836639404L790 7.045351028442383L780 6.990262985229492L770 6.895558834075928L760 6.778539180755615L750 6.658259868621826L740 6.551661968231201L730 6.470242500305176L720 6.418275356292725L710 6.393269062042236L700 6.388662338256836L690 6.39790678024292L680 6.418365478515625L670 6.4534406661987305L660 6.5120720863342285L650 6.605978012084961L640 6.746005058288574L630 6.93917179107666L620 7.187443256378174L610 7.488329887390137L600 7.836629390716553L590 8.22631549835205L580 8.651774406433105L570 9.108043670654297L560 9.590213775634766L551.7639770507812 10L550 10.973955154418945L540 16.880048751831055L535.1227416992188 20L530 23.268754959106445L520.2137451171875 30L520 30.150487899780273L510 37.06587219238281L505.64453125 40L500 44.054168701171875L490.656494140625 50L490 50.45939254760742L480 55.10969924926758L470 56.593997955322266L460 54.142757415771484L452.7298889160156 50L450 48.68860626220703L440 42.132293701171875L437.0315246582031 40L430 35.687591552734375L420 30.26546287536621L419.4630432128906 30L410 25.438907623291016L400 21.983774185180664L391.04010009765625 20L390 19.734201431274414L380 18.134475708007812L370 17.738550186157227L360 18.56194496154785L353.3453674316406 20L350 20.538009643554688L340 23.387998580932617L330 28.14087677001953L327.08721923828125 30L320 34.3616828918457L313.3536071777344 40L310 43.157928466796875L303.885009765625 50L300 55.674076080322266L297.1152648925781 60L292.23541259765625 70Z" fill="url(&quot;#hologram6100#3CA1EDfalse&quot;)"></path></g><g></g><g><path d="M290 77.51793670654297L290 77.51793670654297L289.1178894042969 80L286.9569091796875 90L286.2545166015625 100L286.8952331542969 110L288.9808044433594 120L290 122.92760467529297L292.0586242675781 130L296.808349609375 140L300 144.8558349609375L303.4660949707031 150L310 157.41307067871094L312.7008972167969 160L320 166.2940673828125L325.8852233886719 170L330 172.68800354003906L340 177.4348907470703L348.795654296875 180L350 180.4377899169922L360 182.7654571533203L370 183.79949951171875L380 183.7401885986328L390 182.66165161132812L400 180.57427978515625L402.1339111328125 180L410 178.02496337890625L420 174.73153686523438L430 170.89517211914062L432.91839599609375 170L440 167.54859924316406L450 165.658447265625L460 167.05931091308594L464.92388916015625 170L470 173.01446533203125L477.2219543457031 180L480 182.4293975830078L486.95379638671875 190L490 192.88516235351562L496.91961669921875 200L500 202.78431701660156L508.1346435546875 210L510 211.51512145996094L520 219.0467987060547L521.4412231445312 220L530 225.6277618408203L538.365234375 230L540 230.89930725097656L550 235.6283721923828L560 239.20370483398438L562.8289794921875 240L570 242.37025451660156L580 244.9176483154297L590 246.8292694091797L600 248.25677490234375L610 249.32522583007812L618.3236083984375 250L620 250.16781616210938L630 250.9425048828125L640 251.61257934570312L650 252.2794189453125L660 253.04058837890625L670 253.99224853515625L680 255.23268127441406L690 256.8672790527344L700 259.0155029296875L703.5533447265625 260L710 262.0108642578125L720 265.9553527832031L728.1954956054688 270L730 270.9457702636719L740 277.2728271484375L743.6387939453125 280L750 284.6737365722656L756.4849853515625 290L760 292.7250061035156L768.900634765625 300L770 300.8351135253906L780 308.5770568847656L781.901611328125 310L790 315.6615295410156L797.0888061523438 320L800 321.7400817871094L810 327.0487365722656L817.08154296875 330L820 331.28948974609375L830 334.9270935058594L840 337.52056884765625L850 339.22540283203125L858.1007080078125 340L860 340.2268371582031L870 340.5956115722656L880 340.15582275390625L881.3207397460938 340L890 339.1378479003906L900 337.460693359375L910 335.0340576171875L920 331.8273620605469L924.95263671875 330L930 328.1589660644531L940 324.0484924316406L948.8677368164062 320L950 319.4527282714844L960 314.9270324707031L970 310.4467468261719L970.0225830078125 310L970.5289916992188 300L971.0076293945312 290L971.455322265625 280L971.8693237304688 270L972.2487182617188 260L972.5950317382812 250L972.9132690429688 240L973.2120971679688 230L973.5032348632812 220L973.8002319335938 210L974.1167602539062 200L974.4647216796875 190L974.8527221679688 180L975.2849731445312 170L975.760009765625 160L976.2691040039062 150L976.793212890625 140L977.2984008789062 130L977.73291015625 120L978.03173828125 110L978.1357421875 100L978.0177612304688 90L977.6951904296875 80L977.2164306640625 70L976.6349487304688 60L975.9921264648438 50L975.3134765625 40L974.6123657226562 30L973.89453125 20L973.161865234375 10L970 6.8381123542785645L960 6.600188732147217L950 6.383494853973389L940 6.201144695281982L930 6.060365676879883L920 5.963122844696045L910 5.908172607421875L900 5.89362907409668L890 5.918700218200684L880 5.983615398406982L870 6.08779239654541L860 6.227331161499023L850 6.393218517303467L840 6.571154594421387L830 6.743118762969971L820 6.890177249908447L810 6.995770454406738L800 7.048720836639404L790 7.045351028442383L780 6.990262985229492L770 6.895558834075928L760 6.778539180755615L750 6.658259868621826L740 6.551661968231201L730 6.470242500305176L720 6.418275356292725L710 6.393269062042236L700 6.388662338256836L690 6.39790678024292L680 6.418365478515625L670 6.4534406661987305L660 6.5120720863342285L650 6.605978012084961L640 6.746005058288574L630 6.93917179107666L620 7.187443256378174L610 7.488329887390137L600 7.836629390716553L590 8.22631549835205L580 8.651774406433105L570 9.108043670654297L560 9.590213775634766L551.7639770507812 10L550 10.973955154418945L540 16.880048751831055L535.1227416992188 20L530 23.268754959106445L520.2137451171875 30L520 30.150487899780273L510 37.06587219238281L505.64453125 40L500 44.054168701171875L490.656494140625 50L490 50.45939254760742L480 55.10969924926758L470 56.593997955322266L460 54.142757415771484L452.7298889160156 50L450 48.68860626220703L440 42.132293701171875L437.0315246582031 40L430 35.687591552734375L420 30.26546287536621L419.4630432128906 30L410 25.438907623291016L400 21.983774185180664L391.04010009765625 20L390 19.734201431274414L380 18.134475708007812L370 17.738550186157227L360 18.56194496154785L353.3453674316406 20L350 20.538009643554688L340 23.387998580932617L330 28.14087677001953L327.08721923828125 30L320 34.3616828918457L313.3536071777344 40L310 43.157928466796875L303.885009765625 50L300 55.674076080322266L297.1152648925781 60L292.23541259765625 70Z" stroke-width="5" stroke="#0bdbfb" fill="none"></path></g><g></g><g></g></g><g><g><path d="M30 73.39553833007812L30 73.39553833007812L27.13139533996582 80L24.493412017822266 90L23.29963493347168 100L23.281660079956055 110L24.38606834411621 120L26.709030151367188 130L30 139.11538696289062L30.292072296142578 140L34.37150192260742 150L39.635066986083984 160L40 160.7927703857422L44.674095153808594 170L48.47111511230469 180L49.04090881347656 190L46.00035858154297 200L41.02170181274414 210L40 211.71629333496094L35.54011917114258 220L30.924667358398438 230L30 232.43185424804688L26.94713592529297 240L24.093311309814453 250L22.487152099609375 260L21.973188400268555 270L22.504419326782227 280L24.215641021728516 290L27.457740783691406 300L30 305.22161865234375L32.080039978027344 310L38.64278793334961 320L40 321.6724853515625L47.57674789428711 330L50 332.2649230957031L60 339.55126953125L60.85474395751953 340L70 345.1810607910156L80 348.5574035644531L88.19831085205078 350L90 350.42218017578125L100 351.2176818847656L110 350.42218017578125L111.80168914794922 350L120 348.5574035644531L130 345.1810607910156L139.14524841308594 340L140 339.55126953125L150 332.2649230957031L152.42324829101562 330L160 321.6724853515625L161.35720825195312 320L167.91995239257812 310L170 305.22161865234375L172.54225158691406 300L175.78436279296875 290L177.49557495117188 280L178.0268096923828 270L177.51284790039062 260L175.9066925048828 250L173.05287170410156 240L170 232.43185424804688L169.07533264160156 230L164.4598846435547 220L160 211.71629333496094L158.97830200195312 210L153.99964904785156 200L150.95909118652344 190L151.5288848876953 180L155.32589721679688 170L160 160.7927703857422L160.36492919921875 160L165.6284942626953 150L169.7079315185547 140L170 139.11538696289062L173.2909698486328 130L175.6139373779297 120L176.7183380126953 110L176.7003631591797 100L175.506591796875 90L172.8686065673828 80L170 73.39553833007812L168.75904846191406 70L163.14080810546875 60L160 55.9393424987793L155.08726501464844 50L150 45.08150100708008L143.31292724609375 40L140 37.62469482421875L130 32.281341552734375L122.85967254638672 30L120 28.90930938720703L110 26.61532974243164L100 25.896236419677734L90 26.61532974243164L80 28.90930938720703L77.14032745361328 30L70 32.281341552734375L60 37.62469482421875L56.687068939208984 40L50 45.08150100708008L44.91273498535156 50L40 55.9393424987793L36.859195709228516 60L31.24094581604004 70Z" fill="url(&quot;#hologram550#F33F5Bfalse&quot;)"></path><path d="M30 552.0065307617188L30 552.0065307617188L27.892786026000977 560L26.888147354125977 570L27.402565002441406 580L29.544034957885742 590L30 591.2430419921875L32.6114501953125 600L37.866851806640625 610L40 612.9908447265625L45.201629638671875 620L50 624.941650390625L56.12835693359375 630L60 632.9349365234375L70 638.43359375L74.6313705444336 640L80 642.1622314453125L90 644.4755859375L100 645.194580078125L110 644.4755859375L120 642.1622314453125L125.3686294555664 640L130 638.43359375L140 632.9349365234375L143.87164306640625 630L150 624.941650390625L154.79837036132812 620L160 612.9908447265625L162.13314819335938 610L167.3885498046875 600L170 591.2430419921875L170.45596313476562 590L172.59744262695312 580L173.11184692382812 570L172.10720825195312 560L170 552.0065307617188L169.58963012695312 550L166.05615234375 540L160 530.0594482421875L159.96397399902344 530L151.99075317382812 520L150 517.9761352539062L140 510.0638732910156L139.8885955810547 510L130 503.9889831542969L120 500.5501708984375L117.05426788330078 500L110 498.22564697265625L100 497.4161071777344L90 498.22564697265625L82.94573211669922 500L80 500.5501708984375L70 503.9889831542969L60.11140441894531 510L60 510.0638732910156L50 517.9761352539062L48.009239196777344 520L40.03602981567383 530L40 530.0594482421875L33.943851470947266 540L30.410367965698242 550Z" fill="url(&quot;#hologram550#F33F5Bfalse&quot;)"></path></g><g></g><g><path d="M30 73.39553833007812L30 73.39553833007812L27.13139533996582 80L24.493412017822266 90L23.29963493347168 100L23.281660079956055 110L24.38606834411621 120L26.709030151367188 130L30 139.11538696289062L30.292072296142578 140L34.37150192260742 150L39.635066986083984 160L40 160.7927703857422L44.674095153808594 170L48.47111511230469 180L49.04090881347656 190L46.00035858154297 200L41.02170181274414 210L40 211.71629333496094L35.54011917114258 220L30.924667358398438 230L30 232.43185424804688L26.94713592529297 240L24.093311309814453 250L22.487152099609375 260L21.973188400268555 270L22.504419326782227 280L24.215641021728516 290L27.457740783691406 300L30 305.22161865234375L32.080039978027344 310L38.64278793334961 320L40 321.6724853515625L47.57674789428711 330L50 332.2649230957031L60 339.55126953125L60.85474395751953 340L70 345.1810607910156L80 348.5574035644531L88.19831085205078 350L90 350.42218017578125L100 351.2176818847656L110 350.42218017578125L111.80168914794922 350L120 348.5574035644531L130 345.1810607910156L139.14524841308594 340L140 339.55126953125L150 332.2649230957031L152.42324829101562 330L160 321.6724853515625L161.35720825195312 320L167.91995239257812 310L170 305.22161865234375L172.54225158691406 300L175.78436279296875 290L177.49557495117188 280L178.0268096923828 270L177.51284790039062 260L175.9066925048828 250L173.05287170410156 240L170 232.43185424804688L169.07533264160156 230L164.4598846435547 220L160 211.71629333496094L158.97830200195312 210L153.99964904785156 200L150.95909118652344 190L151.5288848876953 180L155.32589721679688 170L160 160.7927703857422L160.36492919921875 160L165.6284942626953 150L169.7079315185547 140L170 139.11538696289062L173.2909698486328 130L175.6139373779297 120L176.7183380126953 110L176.7003631591797 100L175.506591796875 90L172.8686065673828 80L170 73.39553833007812L168.75904846191406 70L163.14080810546875 60L160 55.9393424987793L155.08726501464844 50L150 45.08150100708008L143.31292724609375 40L140 37.62469482421875L130 32.281341552734375L122.85967254638672 30L120 28.90930938720703L110 26.61532974243164L100 25.896236419677734L90 26.61532974243164L80 28.90930938720703L77.14032745361328 30L70 32.281341552734375L60 37.62469482421875L56.687068939208984 40L50 45.08150100708008L44.91273498535156 50L40 55.9393424987793L36.859195709228516 60L31.24094581604004 70Z" stroke-width="5" stroke="#0bdbfb" fill="none"></path><path d="M30 552.0065307617188L30 552.0065307617188L27.892786026000977 560L26.888147354125977 570L27.402565002441406 580L29.544034957885742 590L30 591.2430419921875L32.6114501953125 600L37.866851806640625 610L40 612.9908447265625L45.201629638671875 620L50 624.941650390625L56.12835693359375 630L60 632.9349365234375L70 638.43359375L74.6313705444336 640L80 642.1622314453125L90 644.4755859375L100 645.194580078125L110 644.4755859375L120 642.1622314453125L125.3686294555664 640L130 638.43359375L140 632.9349365234375L143.87164306640625 630L150 624.941650390625L154.79837036132812 620L160 612.9908447265625L162.13314819335938 610L167.3885498046875 600L170 591.2430419921875L170.45596313476562 590L172.59744262695312 580L173.11184692382812 570L172.10720825195312 560L170 552.0065307617188L169.58963012695312 550L166.05615234375 540L160 530.0594482421875L159.96397399902344 530L151.99075317382812 520L150 517.9761352539062L140 510.0638732910156L139.8885955810547 510L130 503.9889831542969L120 500.5501708984375L117.05426788330078 500L110 498.22564697265625L100 497.4161071777344L90 498.22564697265625L82.94573211669922 500L80 500.5501708984375L70 503.9889831542969L60.11140441894531 510L60 510.0638732910156L50 517.9761352539062L48.009239196777344 520L40.03602981567383 530L40 530.0594482421875L33.943851470947266 540L30.410367965698242 550Z" stroke-width="5" stroke="#0bdbfb" fill="none"></path></g><g></g><g></g></g><g><g></g><g></g><g></g><g></g><g></g></g><g><g></g><g></g><g></g><g></g><g></g></g><g><g></g><g></g><g></g><g></g><g></g></g></g><g><g><line x1="113" y1="900" x2="233.14035034179688" y2="900" stroke-width="8" stroke="#e0e0e0e5"></line></g><g><line x1="259.1403503417969" y1="900" x2="517.448974609375" y2="900" stroke-width="8" stroke="#e0e0e0e5"></line></g><g><line x1="543.448974609375" y1="900" x2="809.0142822265625" y2="900" stroke-width="8" stroke="#e0e0e0e5"></line></g><g><line x1="835.0142822265625" y1="900" x2="1106.7432861328125" y2="900" stroke-width="8" stroke="#e0e0e0e5"></line></g><g><line x1="1132.7432861328125" y1="900" x2="1406.3968505859375" y2="900" stroke-width="8" stroke="#e0e0e0e5"></line></g><g><line x1="679.9957275390625" y1="900" x2="751.974365234375" y2="900" stroke-width="8" stroke="#e0e0e0e5"></line></g><g><line x1="777.974365234375" y1="900" x2="906.3212280273438" y2="900" stroke-width="8" stroke="#e0e0e0e5"></line></g><g><line x1="932.3212280273438" y1="900" x2="1049.205078125" y2="900" stroke-width="8" stroke="#e0e0e0e5"></line></g><g><line x1="1049.205078125" y1="900" x2="779.6620483398438" y2="900" stroke-width="8" stroke="#e0e0e0e5"></line></g><g><line x1="779.6620483398438" y1="900" x2="991.2654418945312" y2="900" stroke-width="8" stroke="#e0e0e0e5"></line></g><g><line x1="1429.6297607421875" y1="352.3631896972656" x2="1155.4588623046875" y2="350.2543029785156" stroke-width="8" stroke="#e0e0e0e5"></line></g><g><line x1="1130.3919677734375" y1="345.3188171386719" x2="875.759521484375" y2="243.28355407714844" stroke-width="8" stroke="#e0e0e0e5"></line></g><g><line x1="852.7237548828125" y1="231.47019958496094" x2="657.0316772460938" y2="106.97782897949219" stroke-width="8" stroke="#e0e0e0e5"></line></g><g><line x1="633.0631103515625" y1="100" x2="377.7370300292969" y2="100" stroke-width="8" stroke="#e0e0e0e5"></line></g><g><line x1="377.5711669921875" y1="102.07002258300781" x2="567.1566162109375" y2="132.6483154296875" stroke-width="8" stroke="#e0e0e0e5"></line></g><g><line x1="592.65625" y1="131.78814697265625" x2="717.391845703125" y2="102.93019104003906" stroke-width="8" stroke="#e0e0e0e5"></line></g><g><line x1="743.0573120117188" y1="100" x2="921.772216796875" y2="100" stroke-width="8" stroke="#e0e0e0e5"></line></g><g><line x1="947.772216796875" y1="100" x2="1130.878173828125" y2="100" stroke-width="8" stroke="#e0e0e0e5"></line></g><g><line x1="1130.878173828125" y1="100" x2="888.2008056640625" y2="100" stroke-width="8" stroke="#e0e0e0e5"></line></g><g><line x1="888.2008056640625" y1="100" x2="1105.23779296875" y2="100" stroke-width="8" stroke="#e0e0e0e5"></line></g><g><line x1="1131.23779296875" y1="100" x2="1400.6671142578125" y2="100" stroke-width="8" stroke="#e0e0e0e5"></line></g><g><line x1="1426.6671142578125" y1="100" x2="1487" y2="100" stroke-width="8" stroke="#e0e0e0e5"></line></g><g><line x1="0" y1="0" x2="0" y2="0" stroke-width="8" stroke="#e0e0e0e5"></line></g><g><line x1="0" y1="0" x2="0" y2="0" stroke-width="8" stroke="#e0e0e0e5"></line></g><g><line x1="100" y1="559.7794799804688" x2="100" y2="286.8470153808594" stroke-width="8" stroke="#e0e0e0e5"></line></g><g><line x1="100" y1="260.8470153808594" x2="100" y2="113" stroke-width="8" stroke="#e0e0e0e5"></line></g><g transform="matrix(1,0,0,1,100,900)"><path d="M14 0 A14 14 0 0,1 14 0" stroke-width="5" stroke="#12b886" fill="none" transform="matrix(6.123233995736766e-17,-1,1,6.123233995736766e-17,0,0)"></path><circle r="10" cx="0" cy="0" fill="#0bdbfb"></circle></g><g transform="matrix(1,0,0,1,246.14035034179688,900)"><path d="M14 0 A14 14 0 0,1 14 0" stroke-width="5" stroke="#12b886" fill="none" transform="matrix(6.123233995736766e-17,-1,1,6.123233995736766e-17,0,0)"></path><circle r="10" cx="0" cy="0" fill="#0bdbfb"></circle></g><g transform="matrix(1,0,0,1,530.448974609375,900)"><path d="M14 0 A14 14 0 0,1 14 0" stroke-width="5" stroke="#12b886" fill="none" transform="matrix(6.123233995736766e-17,-1,1,6.123233995736766e-17,0,0)"></path><circle r="10" cx="0" cy="0" fill="#0bdbfb"></circle></g><g transform="matrix(1,0,0,1,822.0142822265625,900)"><path d="M14 0 A14 14 0 0,1 14 0" stroke-width="5" stroke="#12b886" fill="none" transform="matrix(6.123233995736766e-17,-1,1,6.123233995736766e-17,0,0)"></path><circle r="10" cx="0" cy="0" fill="#0bdbfb"></circle></g><g transform="matrix(1,0,0,1,1119.7432861328125,900)"><path d="M14 0 A14 14 0 0,1 14 0" stroke-width="5" stroke="#12b886" fill="none" transform="matrix(6.123233995736766e-17,-1,1,6.123233995736766e-17,0,0)"></path><circle r="10" cx="0" cy="0" fill="#0bdbfb"></circle></g><g transform="matrix(1,0,0,1,1419.3968505859375,900)"><path d="M14 0 A14 14 0 0,1 14 0" stroke-width="5" stroke="#12b886" fill="none" transform="matrix(6.123233995736766e-17,-1,1,6.123233995736766e-17,0,0)"></path><circle r="10" cx="0" cy="0" fill="#0bdbfb"></circle></g><g transform="matrix(1,0,0,1,666.9957275390625,900)"><path d="M14 0 A14 14 0 0,1 14 0" stroke-width="5" stroke="#12b886" fill="none" transform="matrix(6.123233995736766e-17,-1,1,6.123233995736766e-17,0,0)"></path><circle r="10" cx="0" cy="0" fill="#0bdbfb"></circle></g><g transform="matrix(1,0,0,1,764.974365234375,900)"><path d="M14 0 A14 14 0 0,1 14 0" stroke-width="5" stroke="#12b886" fill="none" transform="matrix(6.123233995736766e-17,-1,1,6.123233995736766e-17,0,0)"></path><circle r="10" cx="0" cy="0" fill="#0bdbfb"></circle></g><g transform="matrix(1,0,0,1,919.3212280273438,900)"><path d="M14 0 A14 14 0 0,1 14 0" stroke-width="5" stroke="#12b886" fill="none" transform="matrix(6.123233995736766e-17,-1,1,6.123233995736766e-17,0,0)"></path><circle r="10" cx="0" cy="0" fill="#0bdbfb"></circle></g><g transform="matrix(1,0,0,1,1062.205078125,900)"><path d="M14 0 A14 14 0 0,1 14 0" stroke-width="5" stroke="#12b886" fill="none" transform="matrix(6.123233995736766e-17,-1,1,6.123233995736766e-17,0,0)"></path><circle r="10" cx="0" cy="0" fill="#0bdbfb"></circle></g><g transform="matrix(1,0,0,1,766.6620483398438,900)"><path d="M14 0 A14 14 0 0,1 14 0" stroke-width="5" stroke="#12b886" fill="none" transform="matrix(6.123233995736766e-17,-1,1,6.123233995736766e-17,0,0)"></path><circle r="10" cx="0" cy="0" fill="#0bdbfb"></circle></g><g transform="matrix(1,0,0,1,1004.2654418945312,900)"><path d="M14 0 A14 14 0 0,1 14 0" stroke-width="5" stroke="#12b886" fill="none" transform="matrix(6.123233995736766e-17,-1,1,6.123233995736766e-17,0,0)"></path><circle r="10" cx="0" cy="0" fill="#0bdbfb"></circle></g><g transform="matrix(1,0,0,1,1442.62939453125,352.4631652832031)"><path d="M14 0 A14 14 0 0,1 14 0" stroke-width="5" stroke="#12b886" fill="none" transform="matrix(6.123233995736766e-17,-1,1,6.123233995736766e-17,0,0)"></path><circle r="10" cx="0" cy="0" fill="#0bdbfb"></circle></g><g transform="matrix(1,0,0,1,1142.459228515625,350.1543273925781)"><path d="M14 0 A14 14 0 0,1 14 0" stroke-width="5" stroke="#12b886" fill="none" transform="matrix(6.123233995736766e-17,-1,1,6.123233995736766e-17,0,0)"></path><circle r="10" cx="0" cy="0" fill="#0bdbfb"></circle></g><g transform="matrix(1,0,0,1,863.6923217773438,238.44802856445312)"><path d="M14 0 A14 14 0 0,1 14 0" stroke-width="5" stroke="#12b886" fill="none" transform="matrix(6.123233995736766e-17,-1,1,6.123233995736766e-17,0,0)"></path><circle r="10" cx="0" cy="0" fill="#0bdbfb"></circle></g><g transform="matrix(1,0,0,1,646.0631103515625,100)"><path d="M14 0 A14 14 0 0,1 14 0" stroke-width="5" stroke="#12b886" fill="none" transform="matrix(6.123233995736766e-17,-1,1,6.123233995736766e-17,0,0)"></path><circle r="10" cx="0" cy="0" fill="#0bdbfb"></circle></g><g transform="matrix(1,0,0,1,364.7370300292969,100)"><path d="M14 0 A14 14 0 0,1 14 0" stroke-width="5" stroke="#12b886" fill="none" transform="matrix(6.123233995736766e-17,-1,1,6.123233995736766e-17,0,0)"></path><circle r="10" cx="0" cy="0" fill="#0bdbfb"></circle></g><g transform="matrix(1,0,0,1,579.9907836914062,134.7183380126953)"><path d="M14 0 A14 14 0 0,1 14 0" stroke-width="5" stroke="#12b886" fill="none" transform="matrix(6.123233995736766e-17,-1,1,6.123233995736766e-17,0,0)"></path><circle r="10" cx="0" cy="0" fill="#0bdbfb"></circle></g><g transform="matrix(1,0,0,1,730.0573120117188,100)"><path d="M14 0 A14 14 0 0,1 14 0" stroke-width="5" stroke="#12b886" fill="none" transform="matrix(6.123233995736766e-17,-1,1,6.123233995736766e-17,0,0)"></path><circle r="10" cx="0" cy="0" fill="#0bdbfb"></circle></g><g transform="matrix(1,0,0,1,934.772216796875,100)"><path d="M14 0 A14 14 0 0,1 14 0" stroke-width="5" stroke="#12b886" fill="none" transform="matrix(6.123233995736766e-17,-1,1,6.123233995736766e-17,0,0)"></path><circle r="10" cx="0" cy="0" fill="#0bdbfb"></circle></g><g transform="matrix(1,0,0,1,1143.878173828125,100)"><path d="M14 0 A14 14 0 0,1 14 0" stroke-width="5" stroke="#12b886" fill="none" transform="matrix(6.123233995736766e-17,-1,1,6.123233995736766e-17,0,0)"></path><circle r="10" cx="0" cy="0" fill="#0bdbfb"></circle></g><g transform="matrix(1,0,0,1,875.2008056640625,100)"><path d="M14 0 A14 14 0 0,1 14 0" stroke-width="5" stroke="#12b886" fill="none" transform="matrix(6.123233995736766e-17,-1,1,6.123233995736766e-17,0,0)"></path><circle r="10" cx="0" cy="0" fill="#0bdbfb"></circle></g><g transform="matrix(1,0,0,1,1118.23779296875,100)"><path d="M14 0 A14 14 0 0,1 14 0" stroke-width="5" stroke="#12b886" fill="none" transform="matrix(6.123233995736766e-17,-1,1,6.123233995736766e-17,0,0)"></path><circle r="10" cx="0" cy="0" fill="#0bdbfb"></circle></g><g transform="matrix(1,0,0,1,1413.6671142578125,100)"><path d="M14 0 A14 14 0 0,1 14 0" stroke-width="5" stroke="#12b886" fill="none" transform="matrix(6.123233995736766e-17,-1,1,6.123233995736766e-17,0,0)"></path><circle r="10" cx="0" cy="0" fill="#0bdbfb"></circle></g><g transform="matrix(1,0,0,1,1500,100)"><path d="M14 0 A14 14 0 0,1 14 0" stroke-width="5" stroke="#12b886" fill="none" transform="matrix(6.123233995736766e-17,-1,1,6.123233995736766e-17,0,0)"></path><circle r="10" cx="0" cy="0" fill="#0bdbfb"></circle></g><g transform="matrix(1,0,0,1,1500,100)"><path d="M14 0 A14 14 0 0,1 14 0" stroke-width="5" stroke="#12b886" fill="none" transform="matrix(6.123233995736766e-17,-1,1,6.123233995736766e-17,0,0)"></path><circle r="10" cx="0" cy="0" fill="#0bdbfb"></circle></g><g transform="matrix(1,0,0,1,1500,100)"><path d="M14 0 A14 14 0 0,1 14 0" stroke-width="5" stroke="#12b886" fill="none" transform="matrix(6.123233995736766e-17,-1,1,6.123233995736766e-17,0,0)"></path><circle r="10" cx="0" cy="0" fill="#0bdbfb"></circle></g><g transform="matrix(1,0,0,1,100,572.7794799804688)"><path d="M14 0 A14 14 0 0,1 14 0" stroke-width="5" stroke="#12b886" fill="none" transform="matrix(6.123233995736766e-17,-1,1,6.123233995736766e-17,0,0)"></path><circle r="10" cx="0" cy="0" fill="#0bdbfb"></circle></g><g transform="matrix(1,0,0,1,100,273.8470153808594)"><path d="M14 0 A14 14 0 0,1 14 0" stroke-width="5" stroke="#12b886" fill="none" transform="matrix(6.123233995736766e-17,-1,1,6.123233995736766e-17,0,0)"></path><circle r="10" cx="0" cy="0" fill="#0bdbfb"></circle></g><g transform="matrix(1,0,0,1,100,100)"><path d="M14 0 A14 14 0 0,1 14 0" stroke-width="5" stroke="#12b886" fill="none" transform="matrix(6.123233995736766e-17,-1,1,6.123233995736766e-17,0,0)"></path><circle r="10" cx="0" cy="0" fill="#0bdbfb"></circle></g></g></g><g><rect width="500" height="30" x="250" y="970" fill="#094672"></rect><polygon points="0,0 125,0 175,50 825,50 875,0 1000,0 1000,1000 750,1000 700,950 300,950 250,1000 0,1000" stroke-width="50" stroke="#232a32" fill="#09467260"></polygon><polygon points="0,0 125,0 175,50 825,50 875,0 1000,0 1000,1000 750,1000 700,950 300,950 250,1000 0,1000" stroke-width="10" stroke="#0bdbfb" fill="none"></polygon><rect width="0" height="30" x="290" y="970" fill="#0bdbfb"></rect><polygon points="290,1000 290,970 320,970" fill="#232a32"></polygon><polygon points="710,1000 710,970 680,970" fill="#232a32"></polygon><polygon points="125,0 875,0 825,50 175,50" fill="#0bdbfb"></polygon></g><defs><pattern x="0" y="0" width="50" height="50" patternUnits="userSpaceOnUse" id="hologram850#9488F0false"><rect width="50" height="50" fill="#0bdbfb50"></rect><polyline points="25,-10 25,60" stroke="#0bdbfb"></polyline></pattern><pattern x="0" y="0" width="10" height="10" patternUnits="userSpaceOnUse" id="hologram850#9488F0true"><rect width="10" height="10" fill="#9488F050"></rect><line x1="0" y1="0" x2="10" y2="0" stroke="#9488f0"></line><line x1="0" y1="10" x2="10" y2="10" stroke="#9488f0"></line><line x1="0" y1="0" x2="0" y2="10" stroke="#9488f0"></line><line x1="10" y1="0" x2="10" y2="10" stroke="#9488f0"></line></pattern><pattern x="0" y="0" width="50" height="50" patternUnits="userSpaceOnUse" id="hologram550#6FDCBAfalse"><rect width="50" height="50" fill="#0bdbfb50"></rect><polyline points="60,-10 -10,25" stroke="#0bdbfb"></polyline><polyline points="60,15 -10,50" stroke="#0bdbfb"></polyline><polyline points="60,40 -10,75" stroke="#0bdbfb"></polyline></pattern><pattern x="0" y="0" width="10" height="10" patternUnits="userSpaceOnUse" id="hologram550#6FDCBAtrue"><rect width="10" height="10" fill="#6FDCBA50"></rect><line x1="0" y1="0" x2="10" y2="0" stroke="#6fdcba"></line><line x1="0" y1="10" x2="10" y2="10" stroke="#6fdcba"></line><line x1="0" y1="0" x2="0" y2="10" stroke="#6fdcba"></line><line x1="10" y1="0" x2="10" y2="10" stroke="#6fdcba"></line></pattern><pattern x="0" y="0" width="100" height="100" patternUnits="userSpaceOnUse" id="hologram6100#3CA1EDfalse"><rect width="100" height="100" fill="#0bdbfb50"></rect><polyline points="110,-10 -10,50" stroke="#0bdbfb"></polyline><polyline points="110,40 -10,100" stroke="#0bdbfb"></polyline><polyline points="110,90 -10,150" stroke="#0bdbfb"></polyline></pattern><pattern x="0" y="0" width="10" height="10" patternUnits="userSpaceOnUse" id="hologram6100#3CA1EDtrue"><rect width="10" height="10" fill="#3CA1ED50"></rect><line x1="0" y1="0" x2="10" y2="0" stroke="#3ca1ed"></line><line x1="0" y1="10" x2="10" y2="10" stroke="#3ca1ed"></line><line x1="0" y1="0" x2="0" y2="10" stroke="#3ca1ed"></line><line x1="10" y1="0" x2="10" y2="10" stroke="#3ca1ed"></line></pattern><pattern x="0" y="0" width="50" height="50" patternUnits="userSpaceOnUse" id="hologram550#F33F5Bfalse"><rect width="50" height="50" fill="#0bdbfb50"></rect><polyline points="60,-10 -10,25" stroke="#0bdbfb"></polyline><polyline points="60,15 -10,50" stroke="#0bdbfb"></polyline><polyline points="60,40 -10,75" stroke="#0bdbfb"></polyline></pattern><pattern x="0" y="0" width="10" height="10" patternUnits="userSpaceOnUse" id="hologram550#F33F5Btrue"><rect width="10" height="10" fill="#F33F5B50"></rect><line x1="0" y1="0" x2="10" y2="0" stroke="#f33f5b"></line><line x1="0" y1="10" x2="10" y2="10" stroke="#f33f5b"></line><line x1="0" y1="0" x2="0" y2="10" stroke="#f33f5b"></line><line x1="10" y1="0" x2="10" y2="10" stroke="#f33f5b"></line></pattern><pattern x="0" y="0" width="30" height="30" patternUnits="userSpaceOnUse" id="hologram730#F98654false"><rect width="30" height="30" fill="#0bdbfb50"></rect><polyline points="15,-10 15,40" stroke="#0bdbfb"></polyline></pattern><pattern x="0" y="0" width="10" height="10" patternUnits="userSpaceOnUse" id="hologram730#F98654true"><rect width="10" height="10" fill="#F9865450"></rect><line x1="0" y1="0" x2="10" y2="0" stroke="#f98654"></line><line x1="0" y1="10" x2="10" y2="10" stroke="#f98654"></line><line x1="0" y1="0" x2="0" y2="10" stroke="#f98654"></line><line x1="10" y1="0" x2="10" y2="10" stroke="#f98654"></line></pattern><pattern x="0" y="0" width="30" height="30" patternUnits="userSpaceOnUse" id="hologram130#F6D083false"><rect width="30" height="30" fill="#0bdbfb50"></rect><polyline points="35,-10 -15,40" stroke="#0bdbfb"></polyline><polyline points="40,15 15,40" stroke="#0bdbfb"></polyline></pattern><pattern x="0" y="0" width="10" height="10" patternUnits="userSpaceOnUse" id="hologram130#F6D083true"><rect width="10" height="10" fill="#F6D08350"></rect><line x1="0" y1="0" x2="10" y2="0" stroke="#f6d083"></line><line x1="0" y1="10" x2="10" y2="10" stroke="#f6d083"></line><line x1="0" y1="0" x2="0" y2="10" stroke="#f6d083"></line><line x1="10" y1="0" x2="10" y2="10" stroke="#f6d083"></line></pattern><pattern x="0" y="0" width="100" height="100" patternUnits="userSpaceOnUse" id="hologram6100#BC768Bfalse"><rect width="100" height="100" fill="#0bdbfb50"></rect><polyline points="110,-10 -10,50" stroke="#0bdbfb"></polyline><polyline points="110,40 -10,100" stroke="#0bdbfb"></polyline><polyline points="110,90 -10,150" stroke="#0bdbfb"></polyline></pattern><pattern x="0" y="0" width="10" height="10" patternUnits="userSpaceOnUse" id="hologram6100#BC768Btrue"><rect width="10" height="10" fill="#BC768B50"></rect><line x1="0" y1="0" x2="10" y2="0" stroke="#bc768b"></line><line x1="0" y1="10" x2="10" y2="10" stroke="#bc768b"></line><line x1="0" y1="0" x2="0" y2="10" stroke="#bc768b"></line><line x1="10" y1="0" x2="10" y2="10" stroke="#bc768b"></line></pattern></defs></svg>